HIERARCHY
ROOT Hips
{
 OFFSET 0.000000 0.000000 0.000000
 CHANNELS 6 Xposition Yposition Zposition Yrotation Xrotation Zrotation
 JOINT Chest
 {
  OFFSET 0.000000 9.585900 0.002600
  CHANNELS 3 Yrotation Xrotation Zrotation
  JOINT Chest2
  {
   OFFSET 0.000000 9.601200 -0.005300
   CHANNELS 3 Yrotation Xrotation Zrotation
   JOINT Chest3
   {
    OFFSET 0.000000 9.561800 0.000000
    CHANNELS 3 Yrotation Xrotation Zrotation
    JOINT Chest4
    {
     OFFSET 0.000000 9.552100 0.000000
     CHANNELS 3 Yrotation Xrotation Zrotation
     JOINT Neck
     {
      OFFSET 0.000000 14.453000 0.000000
      CHANNELS 3 Yrotation Xrotation Zrotation
      JOINT Head
      {
       OFFSET 0.000000 8.936500 -0.011300
       CHANNELS 3 Yrotation Xrotation Zrotation
       End Site
       {
        OFFSET 0.000000 17.073600 -0.006000
       }
      }
     }
     JOINT RightCollar
     {
      OFFSET -2.921100 9.558500 0.000000
      CHANNELS 3 Yrotation Xrotation Zrotation
      JOINT RightShoulder
      {
       OFFSET -13.519700 0.000000 0.000000
       CHANNELS 3 Yrotation Xrotation Zrotation
       JOINT RightElbow
       {
        OFFSET 0.000000 -29.696600 0.000000
        CHANNELS 3 Yrotation Xrotation Zrotation
        JOINT RightWrist
        {
         OFFSET 0.000000 -24.004700 0.000000
         CHANNELS 3 Yrotation Xrotation Zrotation
         End Site
         {
          OFFSET 0.000000 -17.728500 0.000000
         }
        }
       }
      }
     }
     JOINT LeftCollar
     {
      OFFSET 2.921100 9.558500 0.000000
      CHANNELS 3 Yrotation Xrotation Zrotation
      JOINT LeftShoulder
      {
       OFFSET 13.519700 0.000000 0.000000
       CHANNELS 3 Yrotation Xrotation Zrotation
       JOINT LeftElbow
       {
        OFFSET 0.000000 -29.696600 0.000000
        CHANNELS 3 Yrotation Xrotation Zrotation
        JOINT LeftWrist
        {
         OFFSET 0.000000 -24.004700 0.000000
         CHANNELS 3 Yrotation Xrotation Zrotation
         End Site
         {
          OFFSET 0.000000 -17.728500 0.000000
         }
        }
       }
      }
     }
    }
   }
  }
 }
 JOINT RightHip
 {
  OFFSET -7.771700 -0.012900 -0.001300
  CHANNELS 3 Yrotation Xrotation Zrotation
  JOINT RightKnee
  {
   OFFSET 0.000000 -40.869800 0.001200
   CHANNELS 3 Yrotation Xrotation Zrotation
   JOINT RightAnkle
   {
    OFFSET 0.000000 -39.717900 0.002100
    CHANNELS 3 Yrotation Xrotation Zrotation
    JOINT RightToe
    {
     OFFSET 0.000000 -4.965400 11.033500
     CHANNELS 3 Yrotation Xrotation Zrotation
     End Site
     {
      OFFSET 0.000000 -1.423100 5.872300
     }
    }
   }
  }
 }
 JOINT LeftHip
 {
  OFFSET 7.771700 -0.012900 -0.001300
  CHANNELS 3 Yrotation Xrotation Zrotation
  JOINT LeftKnee
  {
   OFFSET 0.000000 -40.869800 0.001200
   CHANNELS 3 Yrotation Xrotation Zrotation
   JOINT LeftAnkle
   {
    OFFSET 0.000000 -39.717900 0.002100
    CHANNELS 3 Yrotation Xrotation Zrotation
    JOINT LeftToe
    {
     OFFSET 0.000000 -4.965400 11.033500
     CHANNELS 3 Yrotation Xrotation Zrotation
     End Site
     {
      OFFSET 0.000000 -1.423100 5.872300
     }
    }
   }
  }
 }
}
MOTION
Frames: 8
Frame Time: 0.008333
0.000000 85.388000 0.000000 0.000000 -5.767877 0.000000 0.000000 11.653817 0.000000 0.000000 -5.885947 0.000000 0.000000 -0.000000 0.000000 0.000000 -0.000000 0.000000 0.000000 12.528835 0.000000 0.000000 0.711642 0.000000 0.000000 -0.000000 0.000000 0.000000 0.000000 -90.000000 0.000000 -2.309062 0.000000 0.000000 2.309062 0.000000 0.000000 -0.000000 0.000000 0.000000 -0.000000 90.000000 0.000000 -2.309062 0.000000 0.000000 2.309062 0.000000 0.000000 8.520406 0.000000 0.000000 1.905762 0.000000 -0.000000 -4.658285 0.000000 0.000000 -0.000000 0.000000 0.000000 8.520406 0.000000 0.000000 1.905762 0.000000 -0.000000 -4.658285 0.000000 0.000000 -0.000000 0.000000
-6.220942 55.541238 24.417349 179.896803 -30.565189 -10.912551 0.940325 13.817185 6.782031 0.355279 7.938909 2.659578 0.492113 9.922266 3.363684 0.376209 7.945645 2.669187 6.747629 23.856754 2.288909 6.752115 0.208715 0.844875 -0.513746 3.903268 -2.410559 -17.286006 -8.694631 4.610581 -10.647372 -76.738546 26.028392 10.143759 -6.505171 -14.437151 -10.287068 1.721909 -2.966833 15.950351 -6.745707 3.212630 -79.382506 -62.311822 90.849026 7.032244 -15.405447 -3.102590 -17.429792 -34.612461 8.911357 33.135022 85.311146 30.417177 0.841152 -18.265689 -0.994878 -0.663229 1.960381 -0.271870 -14.408938 -46.808887 17.138691 178.079847 80.157522 172.636471 -2.458110 -18.015803 2.738724 -0.052778 -0.549804 0.013146
-6.237823 55.540146 24.405255 179.977732 -30.544072 -10.897429 0.913035 13.816882 6.739888 0.312270 7.927325 2.655953 0.541305 9.926403 3.301869 0.345113 7.936909 2.693983 6.642323 23.826725 2.169586 6.742168 0.184394 0.866835 -0.520490 3.900240 -2.382991 -17.277917 -8.681457 4.601806 -10.311136 -76.740338 25.737599 10.146475 -6.503117 -14.431916 -10.259864 1.696667 -2.977797 15.562094 -6.584575 3.293292 -79.406872 -62.474084 90.472033 6.929290 -15.517128 -3.531005 -17.421768 -34.640232 8.840491 33.223929 85.342847 30.495667 0.826328 -18.292302 -0.964659 -0.661649 1.953237 -0.268798 -14.409758 -46.828627 17.074280 178.147462 80.162733 172.666191 -2.472607 -18.011437 2.783946 -0.059659 -0.550056 0.012637
-6.262534 55.539335 24.388105 -179.918901 -30.536831 -10.855314 0.857199 13.835690 6.658019 0.299278 7.922076 2.639816 0.526218 9.916993 3.297609 0.346981 7.930537 2.623379 6.582214 23.793307 2.153239 6.704584 0.150199 0.845921 -0.510137 3.903414 -2.329142 -17.273823 -8.652778 4.577986 -10.259396 -76.736963 25.715225 10.120415 -6.518322 -14.452580 -10.233633 1.690735 -2.940791 15.172352 -6.424827 3.378219 -79.418719 -62.558610 90.094238 6.823675 -15.668996 -3.860965 -17.401599 -34.665407 8.737605 33.244809 85.399446 30.471620 0.809215 -18.327831 -0.895574 -0.672689 1.938355 -0.272192 -14.349198 -46.841864 16.929864 178.165918 80.173317 172.655419 -2.513158 -18.004406 2.848272 -0.054564 -0.551459 0.012195
-6.283708 55.537742 24.372354 -179.833877 -30.516527 -10.833197 0.818865 13.839398 6.606272 0.297161 7.913755 2.629736 0.488189 9.908348 3.303921 0.345080 7.928302 2.588456 6.523507 23.754410 2.102250 6.649638 0.098777 0.802774 -0.483891 3.894873 -2.331590 -17.249936 -8.614672 4.481405 -10.727395 -76.723857 26.166813 10.128226 -6.514078 -14.446694 -10.200080 1.673093 -2.958064 14.781682 -6.257608 3.464967 -79.446856 -62.580833 89.746803 6.713126 -15.854227 -4.100994 -17.392152 -34.697787 8.652093 33.292052 85.436600 30.514682 0.767243 -18.336210 -0.871376 -0.639076 1.911967 -0.256892 -14.313090 -46.865827 16.830081 178.267545 80.178661 172.735884 -2.532289 -18.003150 2.902312 -0.051947 -0.546504 0.001068
-6.295896 55.533694 24.363354 -179.800510 -30.458716 -10.845549 0.819706 13.795368 6.614206 0.290514 7.911384 2.614500 0.475445 9.901186 3.290814 0.335869 7.922336 2.580346 6.461388 23.701725 2.049014 6.591061 0.030592 0.757837 -0.456750 3.888970 -2.332269 -17.258477 -8.592022 4.455984 -10.895492 -76.708529 26.338849 10.138687 -6.491635 -14.422125 -10.170143 1.653545 -2.979526 14.389650 -6.077733 3.547948 -79.527233 -62.556903 89.472757 6.595168 -16.054491 -4.269688 -17.397934 -34.754375 8.645212 33.399082 85.462036 30.630930 0.773628 -18.367997 -0.857243 -0.648832 1.916523 -0.258546 -14.320867 -46.925074 16.854080 178.553817 80.173840 172.995539 -2.534118 -18.006991 2.962011 -0.058920 -0.544248 -0.004689
-6.326622 55.531854 24.343477 -179.694240 -30.453300 -10.786910 0.752289 13.820120 6.515682 0.319352 7.915076 2.598855 0.424099 9.881033 3.287099 0.322680 7.915996 2.569430 6.396027 23.639871 1.995574 6.528757 -0.048674 0.713363 -0.390928 3.875109 -2.369406 -17.314514 -8.554701 4.469827 -10.947065 -76.649824 26.439266 10.112139 -6.487577 -14.442105 -10.141658 1.634927 -3.002564 13.996015 -5.884804 3.617067 -79.668313 -62.494176 89.286407 6.477408 -16.256975 -4.396487 -17.373258 -34.790167 8.521482 33.340045 85.532478 30.529078 0.726470 -18.378472 -0.794959 -0.621514 1.876260 -0.236707 -14.254315 -46.938235 16.664671 178.590730 80.186271 173.010742 -2.547293 -17.998868 3.007190 -0.054726 -0.546116 -0.005124
-6.348582 55.528856 24.329148 -179.628981 -30.424410 -10.764083 0.726817 13.814533 6.474109 0.307585 7.909500 2.587153 0.420373 9.874648 3.261100 0.304128 7.909175 2.572031 6.329541 23.575223 1.942335 6.465149 -0.131242 0.669472 -0.359488 3.866062 -2.363958 -17.330586 -8.542070 4.448030 -11.063813 -76.616696 26.560947 10.094470 -6.498180 -14.450804 -10.127650 1.627460 -2.993349 13.620707 -5.683734 3.630882 -79.867853 -62.407559 89.184120 6.367114 -16.447226 -4.498673 -17.361787 -34.832310 8.463955 33.360432 85.578021 30.521774 0.708387 -18.402676 -0.748607 -0.621560 1.862058 -0.234452 -14.212438 -46.974261 16.564715 178.671086 80.188382 173.087346 -2.556053 -17.999119 3.045714 -0.050154 -0.545172 -0.005077
